<svg xmlns="http://www.w3.org/2000/svg"  viewBox="0 0 50 50" width="100px" height="100px">
 <style>
    path {
      fill: #1111;
    }
    @media (prefers-color-scheme: dark) {
      path {
        fill: #fff;
      }
    }
  </style>
<path d="M 36.935547 4.9804688 C 35.053395 4.8770684 32.966781 5.7404219 30.972656 6.9199219 C 31.903656 7.9539219 32.463531 9.1829219 32.769531 10.044922 C 33.807531 10.135922 34.747797 10.564141 35.466797 11.244141 C 36.884797 10.748141 39.026906 10.258109 40.628906 11.037109 C 40.342906 7.1541094 39.053516 5.3739375 37.728516 5.0859375 C 37.468891 5.0298125 37.204426 4.9952402 36.935547 4.9804688 z M 27.185547 6.9980469 C 27.209547 7.0020469 25.761828 7.0509062 24.298828 11.003906 C 24.301828 11.003906 23.2705 14.913859 25.1875 16.005859 C 25.5645 16.027859 26.667375 16.018703 27.984375 15.470703 C 27.916375 15.159703 27.876953 14.838813 27.876953 14.507812 C 27.876953 12.606813 29.064375 10.985172 30.734375 10.326172 C 30.224375 9.0671719 29.164547 7.2570469 27.185547 6.9980469 z M 8.6855469 8.0332031 C 8.3237402 8.0350801 7.9658906 8.0654531 7.6191406 8.1269531 C 6.7051406 8.2889531 5.9638125 9.57675 5.7578125 9.96875 C 5.1408125 11.14075 4.3959062 13.414359 5.2539062 16.693359 C 5.9909063 15.775359 6.6227812 15.151609 6.6757812 15.099609 C 7.0707813 14.711609 7.7008437 14.718281 8.0898438 15.113281 C 8.4768438 15.508281 8.4682188 16.140344 8.0742188 16.527344 C 8.0522187 16.549344 5.9411875 18.652781 5.1171875 20.675781 C 4.6371875 22.139781 4.375 23.642734 4.375 25.177734 C 4.375 25.613734 4.4054531 26.032219 4.4394531 26.449219 C 6.4204531 26.120219 7.82525 25.992375 7.90625 25.984375 C 8.48625 25.927375 8.9421875 26.341625 8.9921875 26.890625 C 9.0411875 27.441625 8.6359375 27.926563 8.0859375 27.976562 C 8.0659375 27.977563 6.6754688 28.105687 4.7304688 28.429688 C 4.9184687 29.255688 5.1932969 30.031531 5.5292969 30.769531 C 6.4782969 30.460531 7.6089219 30.169094 8.9199219 29.996094 C 9.4629219 29.920094 9.9709688 30.310422 10.042969 30.857422 C 10.114969 31.405422 9.7286406 31.906516 9.1816406 31.978516 C 8.1746406 32.111516 7.2952969 32.323734 6.5292969 32.552734 C 6.9902969 33.218734 7.5269062 33.836203 8.1289062 34.408203 C 9.0849062 33.918203 10.270844 33.421922 11.714844 33.044922 C 12.248844 32.909922 12.794547 33.225766 12.935547 33.759766 C 13.075547 34.293766 12.754703 34.840469 12.220703 34.980469 C 11.329703 35.213469 10.544188 35.496969 9.8671875 35.792969 C 13.203188 38.039969 17.973 39.247047 24 39.248047 L 24.007812 39.248047 C 29.714813 39.248047 34.489359 38.033375 37.818359 35.734375 C 38.755359 35.087375 39.569531 34.350922 40.269531 33.544922 C 38.853531 33.104922 37.838266 32.967797 37.822266 32.966797 C 37.274266 32.895797 36.886031 32.393703 36.957031 31.845703 C 37.028031 31.299703 37.515125 30.928422 38.078125 30.982422 C 38.165125 30.993422 39.597281 31.185844 41.488281 31.839844 C 41.980281 31.015844 42.369297 30.134266 42.654297 29.197266 C 41.271297 29.017266 40.069828 29 40.048828 29 C 39.496828 28.994 39.053594 28.542234 39.058594 27.990234 C 39.064594 27.441234 39.510594 27 40.058594 27 L 40.068359 27 C 40.162315 27.001 41.51978 27.019572 43.089844 27.238281 C 42.993844 27.914281 42.846297 28.566312 42.654297 29.195312 C 43.656297 29.326313 44.750547 29.540437 45.560547 29.898438 C 45.691547 29.957438 45.830844 29.984375 45.964844 29.984375 C 46.348844 29.984375 46.713906 29.762672 46.878906 29.388672 C 47.102906 28.883672 46.875141 28.293312 46.369141 28.070312 C 45.414672 27.647548 44.200298 27.393305 43.091797 27.238281 C 43.186797 26.570281 43.251953 25.888734 43.251953 25.177734 C 43.251953 24.849034 43.235768 24.519118 43.210938 24.191406 C 41.435938 24.441406 40.364656 24.861187 40.347656 24.867188 C 40.224656 24.917188 40.097656 24.939453 39.972656 24.939453 C 39.576656 24.939453 39.203875 24.703453 39.046875 24.314453 C 38.839875 23.802453 39.085656 23.220672 39.597656 23.013672 C 39.676656 22.981672 40.905203 22.492984 42.908203 22.208984 C 42.653203 21.073984 42.248984 19.962672 41.708984 18.888672 C 41.693984 18.911672 41.683969 18.934031 41.667969 18.957031 C 41.028969 19.886031 39.34825 21.978516 37.15625 21.978516 C 37.06125 21.978516 36.966141 21.973844 36.869141 21.964844 C 35.130141 21.820844 34.048422 20.411922 33.232422 18.919922 C 32.954422 18.973922 32.667047 19.007813 32.373047 19.007812 C 30.939047 19.007812 29.676563 18.320437 28.851562 17.273438 C 27.411562 17.893438 26.142062 18.009766 25.414062 18.009766 C 25.027062 18.009766 24.792672 17.978609 24.763672 17.974609 L 24.484375 17.892578 C 20.792375 16.176578 22.329484 10.619813 22.396484 10.382812 C 22.642484 9.7168125 22.895391 9.137 23.150391 8.625 C 20.502391 8.655 17.959734 9.1623281 15.552734 10.111328 C 14.011859 9.3352031 11.218193 8.0200645 8.6855469 8.0332031 z M 41.488281 31.839844 C 41.131281 32.437844 40.733531 33.011922 40.269531 33.544922 C 41.199531 33.834922 42.302062 34.253469 43.414062 34.855469 C 43.565063 34.937469 43.728625 34.976563 43.890625 34.976562 C 44.245625 34.976562 44.588531 34.787125 44.769531 34.453125 C 45.033531 33.967125 44.852187 33.359656 44.367188 33.097656 C 43.366188 32.555656 42.377281 32.147844 41.488281 31.839844 z M 9.8671875 35.792969 C 9.2361875 35.367969 8.6549063 34.907203 8.1289062 34.408203 C 6.3659063 35.311203 5.4251875 36.188141 5.3671875 36.244141 C 4.9711875 36.627141 4.9607969 37.256297 5.3417969 37.654297 C 5.5377969 37.858297 5.8004531 37.962891 6.0644531 37.962891 C 6.3124531 37.962891 6.5609062 37.8705 6.7539062 37.6875 C 6.7679063 37.6745 7.8301875 36.681969 9.8671875 35.792969 z M 6.5292969 32.552734 C 6.1422969 31.992734 5.8123437 31.394531 5.5273438 30.769531 C 3.6533437 31.380531 2.5347969 32.070281 2.4667969 32.113281 C 2.0007969 32.410281 1.8631562 33.028141 2.1601562 33.494141 C 2.3501562 33.793141 2.6758594 33.957031 3.0058594 33.957031 C 3.1898594 33.957031 3.3740156 33.905781 3.5410156 33.800781 C 3.5560156 33.790781 4.6602969 33.111734 6.5292969 32.552734 z M 4.7304688 28.429688 C 4.5864687 27.796688 4.4944531 27.132219 4.4394531 26.449219 C 3.6324531 26.583219 2.7322031 26.749078 1.7832031 26.955078 C 1.2432031 27.072078 0.90057813 27.605531 1.0175781 28.144531 C 1.1195781 28.613531 1.5341406 28.933594 1.9941406 28.933594 C 2.0641406 28.933594 2.1360312 28.925156 2.2070312 28.910156 C 3.1020313 28.716156 3.9594687 28.558688 4.7304688 28.429688 z M 32.375 12.007812 C 30.996 12.007812 29.875 13.128813 29.875 14.507812 C 29.875 15.886812 30.996 17.007812 32.375 17.007812 C 33.754 17.007812 34.875 15.886812 34.875 14.507812 C 34.875 14.416813 34.869375 14.324328 34.859375 14.236328 C 34.725375 12.966328 33.657 12.007812 32.375 12.007812 z M 38.681641 12.626953 C 38.091641 12.622203 37.37925 12.739562 36.59375 12.976562 C 36.71475 13.311563 36.811563 13.658344 36.851562 14.027344 C 36.868563 14.185344 36.876953 14.345812 36.876953 14.507812 C 36.875953 15.978813 36.154547 17.273703 35.060547 18.095703 C 35.766547 19.347703 36.373109 19.916656 37.037109 19.972656 C 37.887109 20.026656 39.074531 19.200219 40.019531 17.824219 C 41.024531 16.363219 41.555203 14.333672 40.033203 13.013672 C 39.739703 12.759672 39.271641 12.631703 38.681641 12.626953 z M 45.890625 22.007812 C 44.773828 22.003078 43.771156 22.088688 42.910156 22.210938 C 43.056871 22.864667 43.16182 23.523809 43.210938 24.1875 C 44.235938 24.0445 45.493781 23.957016 46.925781 24.041016 C 47.464781 24.071016 47.949422 23.652563 47.982422 23.101562 C 48.014422 22.550563 47.595922 22.077922 47.044922 22.044922 C 46.648172 22.021422 46.262891 22.009391 45.890625 22.007812 z M 33.5 25 C 34.328 25 35 25.889281 35 26.988281 C 35 28.087281 34.328 28.976563 33.5 28.976562 C 32.672 28.976562 32 28.087281 32 26.988281 C 32 25.889281 32.672 25 33.5 25 z M 14.5 26.021484 C 15.328 26.021484 16 26.912719 16 28.011719 C 16 29.110719 15.328 30 14.5 30 C 13.672 30 13 29.110719 13 28.011719 C 13 26.912719 13.672 26.021484 14.5 26.021484 z M 24.402344 29.035156 C 25.162344 28.990156 25.906469 29.167438 26.480469 29.523438 C 27.102469 29.908438 27.477766 30.484469 27.509766 31.105469 C 27.574766 32.354469 26.312766 33.402234 24.634766 33.490234 C 24.561766 33.494234 24.488016 33.496094 24.416016 33.496094 C 23.728016 33.496094 23.073688 33.322953 22.554688 33.001953 C 21.932688 32.616953 21.557391 32.040922 21.525391 31.419922 C 21.493391 30.798922 21.805766 30.184328 22.384766 29.736328 C 22.917766 29.323328 23.635344 29.074156 24.402344 29.035156 z"/></svg>